<svg width="192" height="192" viewBox="0 0 24 24" fill="none" xmlns="http://www.w3.org/2000/svg">
<rect width="24" height="24" rx="4" fill="#0A0F1E"/>
<path d="M2.5 4.5C2.5 3.94772 2.94772 3.5 3.5 3.5H20.5C21.0523 3.5 21.5 3.94772 21.5 4.5V7.5H2.5V4.5Z" fill="white" stroke="#FACC15" stroke-width="1"/>
<path d="M4 5.5L4 6.5" stroke="#0A0F1E" stroke-width="1.5" stroke-linecap="round"/>
<path d="M7 5.5L7 6.5" stroke="#0A0F1E" stroke-width="1.5" stroke-linecap="round"/>
<path d="M10 5.5L10 6.5" stroke="#0A0F1E" stroke-width="1.5" stroke-linecap="round"/>
<path d="M13 5.5L13 6.5" stroke="#0A0F1E" stroke-width="1.5" stroke-linecap="round"/>
<path d="M16 5.5L16 6.5" stroke="#0A0F1E" stroke-width="1.5" stroke-linecap="round"/>
<path d="M19 5.5L19 6.5" stroke="#0A0F1E" stroke-width="1.5" stroke-linecap="round"/>
<path d="M2.5 7.5H21.5V19.5C21.5 20.0523 21.0523 20.5 20.5 20.5H3.5C2.94772 20.5 2.5 20.0523 2.5 19.5V7.5Z" fill="#FACC15" stroke="#FACC15" stroke-width="1"/>
<path d="M5 10H10" stroke="#0A0F1E" stroke-width="1.5" stroke-linecap="round"/>
<path d="M5 13H12" stroke="#0A0F1E" stroke-width="1.5" stroke-linecap="round"/>
<path d="M5 16H9" stroke="#0A0F1E" stroke-width="1.5" stroke-linecap="round"/>
<path d="M15 10H19" stroke="#0A0F1E" stroke-width="1.5" stroke-linecap="round"/>
<path d="M17 13H19" stroke="#0A0F1E" stroke-width="1.5" stroke-linecap="round"/>
<path d="M16 16H19" stroke="#0A0F1E" stroke-width="1.5" stroke-linecap="round"/>
</svg>
